<mxfile host="Electron" modified="2024-02-16T18:52:41.679Z" agent="Mozilla/5.0 (Windows NT 10.0; Win64; x64) AppleWebKit/537.36 (KHTML, like Gecko) draw.io/23.0.2 Chrome/120.0.6099.109 Electron/28.1.0 Safari/537.36" etag="ZQbJyBPrFEj4J0cgvKNW" version="23.0.2" type="device">
  <diagram name="Page-1" id="6wSpwQwoSKfwxd83AG3C">
    <mxGraphModel dx="627" dy="1665" grid="1" gridSize="10" guides="1" tooltips="1" connect="1" arrows="1" fold="1" page="1" pageScale="1" pageWidth="827" pageHeight="1169" math="1" shadow="0">
      <root>
        <mxCell id="0" />
        <mxCell id="1" parent="0" />
        <mxCell id="TLMSw67h_jernQR-m71p-19" value="" style="endArrow=none;html=1;rounded=0;endFill=0;dashed=1;strokeColor=#808080;fontFamily=monospace;" parent="1" edge="1">
          <mxGeometry width="50" height="50" relative="1" as="geometry">
            <mxPoint x="280" y="90" as="sourcePoint" />
            <mxPoint x="280" y="-50" as="targetPoint" />
          </mxGeometry>
        </mxCell>
        <mxCell id="TLMSw67h_jernQR-m71p-18" value="" style="endArrow=none;html=1;rounded=0;endFill=0;dashed=1;strokeColor=#808080;fontFamily=monospace;" parent="1" edge="1">
          <mxGeometry width="50" height="50" relative="1" as="geometry">
            <mxPoint x="120" y="90" as="sourcePoint" />
            <mxPoint x="120" y="-50" as="targetPoint" />
          </mxGeometry>
        </mxCell>
        <mxCell id="TLMSw67h_jernQR-m71p-8" value="" style="endArrow=none;html=1;rounded=0;endFill=0;dashed=1;strokeColor=#808080;fontFamily=monospace;" parent="1" edge="1">
          <mxGeometry width="50" height="50" relative="1" as="geometry">
            <mxPoint x="360.01" y="90" as="sourcePoint" />
            <mxPoint x="360" y="-50" as="targetPoint" />
          </mxGeometry>
        </mxCell>
        <mxCell id="TLMSw67h_jernQR-m71p-2" value="" style="endArrow=none;html=1;rounded=0;endFill=0;strokeColor=#000000;fontFamily=monospace;" parent="1" edge="1">
          <mxGeometry width="50" height="50" relative="1" as="geometry">
            <mxPoint x="200" y="90" as="sourcePoint" />
            <mxPoint x="200" y="-50" as="targetPoint" />
          </mxGeometry>
        </mxCell>
        <mxCell id="TLMSw67h_jernQR-m71p-1" value="Carrior" style="rounded=0;whiteSpace=wrap;html=1;fontFamily=monospace;" parent="1" vertex="1">
          <mxGeometry x="200" y="-40" width="80" height="20" as="geometry" />
        </mxCell>
        <mxCell id="TLMSw67h_jernQR-m71p-3" value="" style="endArrow=classic;html=1;rounded=0;fontFamily=monospace;" parent="1" edge="1">
          <mxGeometry width="50" height="50" relative="1" as="geometry">
            <mxPoint x="80" y="80" as="sourcePoint" />
            <mxPoint x="400" y="80" as="targetPoint" />
          </mxGeometry>
        </mxCell>
        <mxCell id="TLMSw67h_jernQR-m71p-4" value="Lower Side-band" style="rounded=0;whiteSpace=wrap;html=1;fillColor=#FFFEFA;strokeColor=#FF9B69;fontFamily=monospace;" parent="1" vertex="1">
          <mxGeometry x="120" y="20" width="160" height="20" as="geometry" />
        </mxCell>
        <mxCell id="TLMSw67h_jernQR-m71p-5" value="Upper Side-band" style="rounded=0;whiteSpace=wrap;html=1;strokeColor=#2379DB;fontFamily=monospace;" parent="1" vertex="1">
          <mxGeometry x="200.01" y="50" width="160" height="20" as="geometry" />
        </mxCell>
        <mxCell id="TLMSw67h_jernQR-m71p-9" value="Frequency" style="text;html=1;strokeColor=none;fillColor=none;align=center;verticalAlign=middle;whiteSpace=wrap;rounded=0;fontFamily=monospace;" parent="1" vertex="1">
          <mxGeometry x="400" y="70" width="80" height="20" as="geometry" />
        </mxCell>
        <mxCell id="TLMSw67h_jernQR-m71p-10" value="$$0$$" style="text;html=1;strokeColor=none;fillColor=none;align=center;verticalAlign=middle;whiteSpace=wrap;rounded=0;fontFamily=monospace;" parent="1" vertex="1">
          <mxGeometry x="190" y="90" width="20" height="40" as="geometry" />
        </mxCell>
        <mxCell id="TLMSw67h_jernQR-m71p-11" value="$$\frac{1}{2}f_s$$" style="text;html=1;strokeColor=none;fillColor=none;align=center;verticalAlign=middle;whiteSpace=wrap;rounded=0;fontFamily=monospace;" parent="1" vertex="1">
          <mxGeometry x="260.01" y="90" width="40" height="40" as="geometry" />
        </mxCell>
        <mxCell id="TLMSw67h_jernQR-m71p-15" value="$$-\frac{1}{2}f_s$$" style="text;html=1;strokeColor=none;fillColor=none;align=center;verticalAlign=middle;whiteSpace=wrap;rounded=0;fontFamily=monospace;" parent="1" vertex="1">
          <mxGeometry x="100" y="90" width="39.92" height="40" as="geometry" />
        </mxCell>
        <mxCell id="EKhy7BbHTxMXBwvhdgtU-3" value="$$f_s$$" style="text;html=1;strokeColor=none;fillColor=none;align=center;verticalAlign=middle;whiteSpace=wrap;rounded=0;fontFamily=monospace;" parent="1" vertex="1">
          <mxGeometry x="340" y="90" width="40" height="40" as="geometry" />
        </mxCell>
        <mxCell id="EKhy7BbHTxMXBwvhdgtU-4" value="Modulator" style="rounded=0;whiteSpace=wrap;html=1;fontFamily=monospace;" parent="1" vertex="1">
          <mxGeometry x="200" y="-10" width="80" height="20" as="geometry" />
        </mxCell>
      </root>
    </mxGraphModel>
  </diagram>
</mxfile>
